#!OML:ASF G:\JayActor3\Patient Classification 1\Patient 1\Session 6\male.ASF
:FULLY-SPECIFIED
:DEGREES
933
root -33.8233 16.3584 -1.858 -545.363 -5.8432 184.1
lowerback -0.181328 -0.739037 7.55686
upperback 1.09905 -1.04054 -2.01565
thorax 1.07171 -0.444876 -6.35975
lowerneck -4.3451 8.40453 5.51287
upperneck 19.8706 11.9676 -13.3391
head 7.98647 4.35787 -4.38297
rclavicle 1.06847e-014 1.66979e-014
rhumerus -3.43165 3.61569 -44.5811
rradius 77.2259
rwrist -30.4359
rhand -45.0582 -12.5352
rfingers 7.12502
rthumb -17.8396 -41.7369
lclavicle 1.06847e-014 1.66979e-014
lhumerus 6.42148 15.9895 60.3698
lradius 62.7302
lwrist 75.8957
lhand -39.1734 14.4946
lfingers 7.12502
lthumb -12.1709 44.1206
rfemur 0.77266 5.63458 38.6432
rtibia 27.2523
rfoot -19.0248 -13.8498
rtoes -1.19154
lfemur -23.8069 3.58659 -9.45399
ltibia 60.2153
lfoot -13.3152 2.67789
ltoes -23.2143
934
root -33.874 16.3507 -2.02455 -545.361 -5.39747 184.219
lowerback -0.192641 -0.648242 7.81026
upperback 1.14638 -0.924287 -2.02498
thorax 1.14358 -0.379703 -6.51472
lowerneck -4.29766 8.42342 5.52455
upperneck 20.1022 11.9764 -13.2692
head 8.05218 4.34907 -4.36732
rclavicle 6.95746e-016 -9.54166e-015
rhumerus -2.99169 3.48454 -44.4439
rradius 77.5571
rwrist -29.9245
rhand -45.2007 -12.3836
rfingers 7.12502
rthumb -17.9767 -41.5728
lclavicle 6.95746e-016 -9.54166e-015
lhumerus 6.55779 15.8818 60.3205
lradius 63.5871
lwrist 75.9189
lhand -39.1601 14.5065
lfingers 7.12502
lthumb -12.158 44.1332
rfemur 1.69634 5.56095 38.8006
rtibia 26.8738
rfoot -19.1318 -13.6222
rtoes -0.866726
lfemur -24.4779 3.63678 -9.47183
ltibia 58.0301
lfoot -13.7711 3.09165
ltoes -24.445
935
root -33.9246 16.3446 -2.19179 -545.361 -4.94345 184.308
lowerback -0.180545 -0.552136 8.04741
upperback 1.18219 -0.798648 -2.04619
thorax 1.1931 -0.311066 -6.67243
lowerneck -4.23647 8.42899 5.53726
upperneck 20.3133 11.9637 -13.1872
head 8.10561 4.3338 -4.35005
rclavicle 7.35503e-015 0
rhumerus -2.57832 3.37784 -44.3085
rradius 77.906
rwrist -29.4496
rhand -45.3541 -12.2223
rfingers 7.12502
rthumb -18.1244 -41.3979
lclavicle 7.35503e-015 0
lhumerus 6.67867 15.7901 60.2678
lradius 64.4481
lwrist 75.9654
lhand -39.147 14.5043
lfingers 7.12502
lthumb -12.1454 44.1317
rfemur 2.65553 5.31353 38.8997
rtibia 26.4193
rfoot -19.1917 -13.4529
rtoes -0.444209
lfemur -25.0191 3.78248 -9.54206
ltibia 55.6856
lfoot -14.0503 3.51918
ltoes -25.5143
936
root -33.9746 16.3397 -2.35988 -545.361 -4.47418 184.374
lowerback -0.149241 -0.452238 8.26615
upperback 1.20488 -0.66563 -2.07349
thorax 1.22074 -0.240134 -6.82569
lowerneck -4.1678 8.42931 5.55291
upperneck 20.5208 11.9405 -13.0924
head 8.15481 4.31577 -4.33015
rclavicle 1.15792e-014 -1.59028e-014
rhumerus -2.18227 3.30808 -44.17
rradius 78.2688
rwrist -29.0187
rhand -45.5062 -12.1075
rfingers 7.12502
rthumb -18.2707 -41.2694
lclavicle 1.15792e-014 -1.59028e-014
lhumerus 6.769 15.6989 60.1851
lradius 65.3102
lwrist 76.0315
lhand -39.1536 14.4604
lfingers 7.12502
lthumb -12.1517 44.0875
rfemur 3.63952 4.9255 38.945
rtibia 25.9137
rfoot -19.2347 -13.4564
rtoes -0.200434
lfemur -25.4393 4.03323 -9.65556
ltibia 53.2234
lfoot -14.1278 3.87601
ltoes -25.9744
937
root -34.024 16.3358 -2.52901 -545.359 -3.9859 184.428
lowerback -0.110034 -0.347778 8.47094
upperback 1.21416 -0.524991 -2.09929
thorax 1.23257 -0.166566 -6.96924
lowerneck -4.09825 8.43407 5.55752
upperneck 20.7347 11.9206 -12.9767
head 8.20447 4.29979 -4.30117
rclavicle 1.88845e-015 -1.27222e-014
rhumerus -1.79793 3.27842 -44.0222
rradius 78.6496
rwrist -28.6506
rhand -45.6477 -12.0291
rfingers 7.12502
rthumb -18.4069 -41.1783
lclavicle 1.88845e-015 -1.27222e-014
lhumerus 6.82783 15.6055 60.0612
lradius 66.1707
lwrist 76.1264
lhand -39.1783 14.3675
lfingers 7.12502
lthumb -12.1756 43.9932
rfemur 4.64271 4.51728 38.9711
rtibia 25.3737
rfoot -19.2708 -13.7314
rtoes -0.569302
lfemur -25.7644 4.42662 -9.81925
ltibia 50.6885
lfoot -13.9308 4.27385
ltoes -26.2574
938
root -34.072 16.3333 -2.69962 -545.35 -3.47649 184.464
lowerback -0.0791202 -0.235573 8.64928
upperback 1.21415 -0.373884 -2.1244
thorax 1.24254 -0.0883322 -7.09691
lowerneck -4.02978 8.44603 5.57356
upperneck 20.9597 11.9086 -12.8573
head 8.25959 4.28784 -4.27214
rclavicle -3.67752e-015 -1.51076e-014
rhumerus -1.4192 3.27354 -43.8726
rradius 79.0387
rwrist -28.3328
rhand -45.7515 -11.9381
rfingers 7.12502
rthumb -18.5067 -41.0778
lclavicle -3.67752e-015 -1.51076e-014
lhumerus 6.86252 15.4941 59.917
lradius 67.0289
lwrist 76.178
lhand -39.2212 14.2599
lfingers 7.12502
lthumb -12.217 43.8831
rfemur 5.6621 4.1473 38.9781
rtibia 24.8095
rfoot -19.2711 -14.1431
rtoes -1.30145
lfemur -26.0069 4.95621 -10.0387
ltibia 48.1229
lfoot -13.471 4.69687
ltoes -26.2455
939
root -34.1186 16.3321 -2.87176 -545.328 -2.9489 184.497
lowerback -0.0716156 -0.119433 8.81052
upperback 1.20416 -0.218798 -2.1402
thorax 1.25708 -0.00831685 -7.20492
lowerneck -3.9674 8.47796 5.59055
upperneck 21.2027 11.9232 -12.7368
head 8.32504 4.28647 -4.24035
rclavicle 9.39258e-015 -7.15625e-015
rhumerus -1.02744 3.29597 -43.7217
rradius 79.4292
rwrist -28.0616
rhand -45.8392 -11.8963
rfingers 7.12502
rthumb -18.591 -41.0279
lclavicle 9.39258e-015 -7.15625e-015
lhumerus 6.8711 15.3897 59.7554
lradius 67.8838
lwrist 76.2119
lhand -39.2807 14.1336
lfingers 7.12502
lthumb -12.2743 43.7534
rfemur 6.68563 3.86072 38.9795
rtibia 24.2293
rfoot -19.2314 -14.6135
rtoes -2.31277
lfemur -26.1953 5.6342 -10.3018
ltibia 45.5734
lfoot -12.7768 5.13585
ltoes -26.0404
940
root -34.1642 16.3323 -3.04557 -545.288 -2.40928 184.519
lowerback -0.0983446 0.0028578 8.95827
upperback 1.18751 -0.0579972 -2.15421
thorax 1.28593 0.0750089 -7.3032
lowerneck -3.91456 8.5279 5.60178
upperneck 21.4681 11.9612 -12.6072
head 8.40164 4.294 -4.20219
rclavicle -1.2921e-015 -7.15625e-015
rhumerus -0.628969 3.32978 -43.5783
rradius 79.8164
rwrist -27.8185
rhand -45.8866 -11.847
rfingers 7.12502
rthumb -18.6366 -40.9743
lclavicle -1.2921e-015 -7.15625e-015
lhumerus 6.869 15.2914 59.5924
lradius 68.7313
lwrist 76.2195
lhand -39.3495 14.0251
lfingers 7.12502
lthumb -12.3406 43.6409
rfemur 7.70302 3.64343 38.9552
rtibia 23.646
rfoot -19.1359 -15.0229
rtoes -3.47146
lfemur -26.3468 6.44343 -10.6171
ltibia 43.0827
lfoot -11.9088 5.51307
ltoes -25.5283
941
root -34.2093 16.3339 -3.22098 -545.229 -1.86077 184.538
lowerback -0.166676 0.129927 9.10455
upperback 1.16446 0.105767 -2.16541
thorax 1.333 0.160627 -7.39734
lowerneck -3.86925 8.5802 5.6179
upperneck 21.7456 12.0021 -12.4861
head 8.48526 4.30086 -4.16747
rclavicle 1.19271e-015 0
rhumerus -0.222398 3.37208 -43.4471
rradius 80.1995
rwrist -27.5876
rhand -45.909 -11.7907
rfingers 7.12502
rthumb -18.6581 -40.9159
lclavicle 1.19271e-015 0
lhumerus 6.85927 15.2159 59.4454
lradius 69.5721
lwrist 76.2036
lhand -39.4139 13.9264
lfingers 7.12502
lthumb -12.4028 43.5385
rfemur 8.69775 3.48344 38.8986
rtibia 23.0778
rfoot -18.9718 -15.284
rtoes -4.81072
lfemur -26.4849 7.36839 -10.979
ltibia 40.6962
lfoot -10.8528 5.85906
ltoes -25.605
942
root -34.2544 16.3364 -3.39766 -545.148 -1.30865 184.554
lowerback -0.277511 0.260812 9.25438
upperback 1.13629 0.270796 -2.17383
thorax 1.39981 0.247876 -7.48999
lowerneck -3.82477 8.63527 5.62682
upperneck 22.0227 12.047 -12.3717
head 8.5696 4.30775 -4.13352
rclavicle 7.15625e-015 -5.56597e-015
rhumerus 0.191284 3.42288 -43.3259
rradius 80.5765
rwrist -27.3486
rhand -45.9208 -11.7439
rfingers 7.12502
rthumb -18.6695 -40.868
lclavicle 7.15625e-015 -5.56597e-015
lhumerus 6.84142 15.1663 59.2956
lradius 70.4105
lwrist 76.2095
lhand -39.4746 13.8409
lfingers 7.12502
lthumb -12.4613 43.4494
rfemur 9.65124 3.3498 38.7944
rtibia 22.5484
rfoot -18.7631 -15.3339
rtoes -6.20402
lfemur -26.6289 8.41201 -11.3884
ltibia 38.4528
lfoot -9.66844 5.97083
ltoes -25.7932
